<?xml version="1.0" encoding="UTF-8"?>
<svg width="26px" height="26px" viewBox="0 0 26 26" version="1.1" xmlns="http://www.w3.org/2000/svg" xmlns:xlink="http://www.w3.org/1999/xlink">
    <!-- Generator: Sketch 52.2 (67145) - http://www.bohemiancoding.com/sketch -->
    <title>global</title>
    <desc>Created with Sketch.</desc>
    <g id="New" stroke="none" stroke-width="1" fill="none" fill-rule="evenodd" opacity="0.541629464">
        <g id="Destination_Goa2" transform="translate(-1411.000000, -42.000000)" fill="#000000" fill-rule="nonzero">
            <g id="Menu" transform="translate(374.000000, 33.000000)">
                <g transform="translate(0.000000, 1.000000)" id="global">
                    <g transform="translate(1037.000000, 8.000000)">
                        <path d="M13,0 C5.832125,0 0,5.832125 0,13 C0,20.167875 5.832125,26 13,26 C20.167875,26 26,20.167875 26,13 C26,5.832125 20.167875,0 13,0 Z M22.204,6.342375 C20.80325,6.898125 19.3635,7.3385 17.886375,7.62775 C17.259125,5.562375 16.263,3.58475 14.89475,1.795625 C17.89125,2.302625 20.488,3.978 22.204,6.342375 Z M16.679,16.5425 C14.23825,16.20775 11.760125,16.20775 9.319375,16.5425 C8.818875,14.21225 8.81725,11.80075 9.316125,9.468875 C10.528375,9.634625 11.753625,9.75 13,9.75 C14.246375,9.75 15.47,9.634625 16.68225,9.468875 C17.181125,11.80075 17.1795,14.21225 16.679,16.5425 Z M16.258125,7.879625 C14.09525,8.159125 11.903125,8.159125 9.74025,7.879625 C10.4065,5.789875 11.49525,3.809 13,2.054 C14.50475,3.809 15.591875,5.789875 16.258125,7.879625 Z M11.102,1.795625 C9.73375,3.58475 8.73925,5.562375 8.112,7.62775 C6.6365,7.3385 5.19675,6.898125 3.796,6.342375 C5.510375,3.978 8.107125,2.302625 11.102,1.795625 Z M1.625,13 C1.625,11.10525 2.097875,9.321 2.920125,7.748 C4.473625,8.386625 6.06775,8.88875 7.707375,9.218625 C7.18575,11.71625 7.18575,14.295125 7.709,16.794375 C6.071,17.121 4.470375,17.619875 2.920125,18.256875 C2.097875,16.680625 1.625,14.896375 1.625,13 Z M3.796,19.657625 C5.19675,19.101875 6.6365,18.6615 8.112,18.37225 C8.73925,20.437625 9.735375,22.41525 11.103625,24.204375 C8.107125,23.697375 5.510375,22.022 3.796,19.657625 Z M9.741875,18.120375 C11.903125,17.840875 14.09525,17.840875 16.258125,18.120375 C15.591875,20.210125 14.503125,22.191 13,23.946 C11.49525,22.191 10.408125,20.210125 9.741875,18.120375 Z M14.89475,24.204375 C16.263,22.41525 17.259125,20.437625 17.886375,18.37225 C19.361875,18.6615 20.80325,19.1035 22.204,19.657625 C20.488,22.022 17.89125,23.697375 14.89475,24.204375 Z M18.289375,16.791125 C18.812625,14.2935 18.81425,11.714625 18.291,9.217 C19.930625,8.887125 21.526375,8.386625 23.079875,7.746375 C23.902125,9.321 24.375,11.10525 24.375,13 C24.375,14.896375 23.902125,16.680625 23.079875,18.253625 C21.529625,17.61825 19.929,17.119375 18.289375,16.791125 Z" id="Shape"></path>
                    </g>
                </g>
            </g>
        </g>
    </g>
</svg>