<?xml version="1.0" encoding="UTF-8"?>
<svg width="26px" height="26px" viewBox="0 0 26 26" version="1.1" xmlns="http://www.w3.org/2000/svg" xmlns:xlink="http://www.w3.org/1999/xlink">
    <!-- Generator: Sketch 52.2 (67145) - http://www.bohemiancoding.com/sketch -->
    <title>Search</title>
    <desc>Created with Sketch.</desc>
    <defs>
        <polygon id="path-1" points="0 0 26 0 26 26 0 26"></polygon>
    </defs>
    <g id="New" stroke="none" stroke-width="1" fill="none" fill-rule="evenodd" opacity="0.541629464">
        <g id="Destination_Goa2" transform="translate(-1339.000000, -43.000000)">
            <g id="Menu" transform="translate(374.000000, 33.000000)">
                <g transform="translate(0.000000, 1.000000)" id="Search">
                    <g transform="translate(965.000000, 9.000000)">
                        <mask id="mask-2" fill="white">
                            <use xlink:href="#path-1"></use>
                        </mask>
                        <g id="Clip-2"></g>
                        <path d="M25.6037485,23.6803441 L19.1957203,17.2468074 C20.8438197,15.3544565 21.7467584,12.9743275 21.7467584,10.4966428 C21.7467584,4.70891298 16.8692349,0 10.8719019,0 C4.87752355,0 0,4.70891298 0,10.4966428 C0,16.2860842 4.87752355,20.9949971 10.8719019,20.9949971 C13.1227484,20.9949971 15.2695915,20.3400623 17.1020607,19.0940887 L23.5609088,25.5789705 C23.8309631,25.8510993 24.1932023,26 24.583806,26 C24.9507726,26 25.2988294,25.8642208 25.5647473,25.617194 C26.1302658,25.0934743 26.1462209,24.2263132 25.6037485,23.6803441 Z M10.8719019,2.73897398 C15.3038654,2.73897398 18.9097109,6.22016939 18.9097109,10.4966428 C18.9097109,14.7753983 15.3038654,18.2560232 10.8719019,18.2560232 C6.44230213,18.2560232 2.83704756,14.7753983 2.83704756,10.4966428 C2.83704756,6.22016939 6.44230213,2.73897398 10.8719019,2.73897398 Z" id="Fill-1" fill="#000000" mask="url(#mask-2)"></path>
                    </g>
                </g>
            </g>
        </g>
    </g>
</svg>