<?xml version="1.0" encoding="utf-8"?>
<!-- Generator: Adobe Illustrator 19.0.0, SVG Export Plug-In . SVG Version: 6.00 Build 0)  -->
<svg version="1.1" id="Layer_1" xmlns="http://www.w3.org/2000/svg" xmlns:xlink="http://www.w3.org/1999/xlink" x="0px" y="0px"
	 width="261px" height="64px" viewBox="0 0 261 64" style="enable-background:new 0 0 261 64;" xml:space="preserve">
<style type="text/css">
	.st0{fill:#FFFFFF;}
	.st1{fill:#E50A0A;}
</style>
<g id="XMLID_1562_">
	
		<image style="overflow:visible;opacity:0.75;" width="1189" height="321" id="XMLID_412_" xlink:href="61174199.png"  transform="matrix(0.24 0 0 0.24 -12.1666 -6.4956)">
	</image>
	<g id="XMLID_238_">
		<g id="XMLID_354_">
			<path id="XMLID_380_" class="st0" d="M128.9,39.5c-0.1,1.2-0.1,2.1-0.2,3.1c-2.1-0.1-4.1,0.1-6-0.6c0-0.2,0-0.4,0-0.6
				c0.8-0.1,1.5-0.2,2.5-0.3c0-0.7,0.1-1.4,0.1-2.1c0-8.8,0-17.5,0-26.3c0-1.6,0.1-3.1-2.2-2.8c-0.1,0-0.3-0.2-0.5-0.2
				c0-0.2,0.1-0.3,0.1-0.5c2,0,4,0,6.2,0c0,5.3,0,10.9,0,16.7c0.5-0.3,0.8-0.5,1.1-0.7c3.6-3.4,8.9-3,11.8,1.1
				c2.6,3.7,2.9,7.8,0.9,11.8C139.9,43.8,133.5,44.5,128.9,39.5z M129.1,32.4c-0.1,0-0.1,0-0.2,0c0,1-0.1,1.9,0,2.9
				c0.1,1,0.2,2.1,0.5,3c0.8,2.5,2.9,3.9,5.5,3.8c2.4-0.1,4-1.5,4.3-4.3c0.3-3.3,0.3-6.7-0.1-10.1c-0.4-3.2-3.2-4.6-6-3.7
				c-2.2,0.8-3.9,3.1-4,5.5C129.1,30.5,129.1,31.4,129.1,32.4z"/>
			<path id="XMLID_377_" class="st0" d="M225.2,41.2c1,0.2,1.8,0.3,2.7,0.4c0,0.2,0,0.4,0,0.6c-2,0.2-3.9,0.3-6,0.5
				c-0.1-1-0.2-1.8-0.2-2.7c-0.2,0-0.4,0-0.5,0.1c-3.3,4.4-10.7,4.1-13.6-3c-1.7-4.2-0.5-9.6,2.6-12.3c2.8-2.5,8.2-2.9,10.7,0.8
				c0.1,0.2,0.3,0.3,0.8,0.7c0-2.3,0-4.3,0-6.2c0-2.7-0.1-5.4,0-8.2c0-1.4-0.3-2.2-1.9-2c-0.4,0.1-0.9-0.1-1.3-0.2
				c0-0.2,0-0.4,0-0.6c2.2-0.1,4.3-0.2,6.7-0.3C225.2,19.7,225.2,30.5,225.2,41.2z M221.9,32.8c-0.2-1.3-0.3-3-0.6-4.6
				c-0.7-2.8-3-4.5-5.7-4.4c-2.4,0.1-4,1.4-4.2,4.5c-0.3,3.5,0,7.1,0.5,10.6c0.4,2.8,2.8,4,5.4,3c2.3-0.8,4-2.3,4.3-4.9
				C221.6,35.7,221.7,34.5,221.9,32.8z"/>
			<path id="XMLID_374_" class="st0" d="M104.8,26.5c0-4.4,0-8.3,0-12.2c0-0.4,0-0.7,0-1.1c0-2.8,0-2.8-2.7-3.2
				c-0.2,0-0.4-0.2-0.5-0.7c2.1,0,4.3,0,6.7,0c0,10.5,0,21.2,0,31.9c1.1,0.2,1.9,0.3,2.7,0.5c0,0.2,0,0.4,0,0.6
				c-2,0.2-3.9,0.4-6,0.5c-0.1-1-0.2-1.8-0.2-2.7c-0.2,0-0.4,0-0.5,0.1c-4.2,4.5-10.2,3.6-13.1-2c-2.2-4.3-1.3-10.2,1.9-13.1
				C96.8,21.8,101.2,22.1,104.8,26.5z M94,33.2c0.1,0,0.1,0,0.2,0c0.1,1.3,0,2.6,0.2,3.8c0.4,1.9,0.5,4.1,2.9,4.8
				c3,1,6.9-1.3,7.2-4.5c0.3-2.5,0.5-5.1,0.2-7.6c-0.2-1.7-1.2-3.6-2.4-4.8c-2.7-2.6-6.8-1.3-7.6,2.3C94.2,29.3,94.2,31.3,94,33.2z"
				/>
			<path id="XMLID_373_" class="st0" d="M7.3,41.2c0-0.8,0-1.5,0-2.2c0-8.5-0.1-17,0-25.6c0-1.9-0.5-2.6-2.4-2.4
				C4.4,11.2,3.8,11,3,10.9c1.3-1,11.5-1.1,13.1,0.1c-0.9,0-1.8,0.2-2.7,0.1c-1,0-1.4,0.3-1.4,1.3c0,9.4,0,18.7,0,28.1
				c0,0.2,0.1,0.3,0.2,0.7c1.3,0.1,2.6,0.1,4.2,0.2c-1.3,1-11.5,1.1-13.4,0.1C4.6,41.4,5.8,41.3,7.3,41.2z"/>
			<path id="XMLID_372_" class="st0" d="M36.1,41.2c1.1,0.1,1.8,0.2,2.7,0.3c-1,0.9-6.8,1.1-8.7,0.4c0.1-0.2,0.2-0.4,0.2-0.4
				c2.4,0.2,2.3-1.2,2.3-3c-0.1-3.8-0.2-7.6-0.2-11.4c0-3.5-3.5-3.7-5.5-2.1c-2,1.6-3.2,3.8-3.3,6.2c-0.2,3.2,0,6.5,0,9.9
				c0.9,0.1,1.7,0.2,2.5,0.4c0,0.2,0,0.3,0,0.5c-2.9,0-5.8,0-8.7,0c0-0.2,0-0.3,0-0.5c0.8-0.1,1.6-0.2,2.6-0.4c0-1.3,0-2.6,0-3.9
				c0-3.6-0.1-7.3,0-10.9c0-1.5-0.2-2.5-2-2.2c-0.2,0-0.4-0.2-0.6-0.2c0-0.2,0-0.4,0-0.5c2-0.2,4-0.3,6.2-0.5c0,1.5,0,3,0,4.4
				c0.1,0,0.2,0.1,0.4,0.1c0.2-0.4,0.5-0.7,0.7-1.1c1.6-2.7,4.7-4.2,7.7-3.4c2.6,0.7,3.9,1.4,3.8,4.6c0,3.9,0,7.7,0,11.6
				C36.1,39.8,36.1,40.5,36.1,41.2z"/>
			<path id="XMLID_371_" class="st0" d="M191.6,41.1c1.4,0.2,2.2,0.3,3,0.4c0,0.2,0,0.3,0,0.5c-2.9,0-5.8,0-8.7,0c0-0.2,0-0.3,0-0.5
				c0.8-0.1,1.6-0.2,2.6-0.4c0-1.9,0-3.9,0-5.9c0-3-0.1-5.9,0-8.9c0-1.5-0.2-2.5-2-2.2c-0.2,0-0.3-0.1-0.5-0.2c0,0,0-0.1-0.2-0.6
				c2.1-0.2,4-0.3,6.2-0.5c0,1.5,0,2.9,0,4.3c0.1,0,0.2,0.1,0.4,0.1c0.3-0.3,0.5-0.7,0.8-1c1.9-3,4.9-4.2,8.3-3.2
				c2.3,0.7,3.2,1.5,3.2,4c0.1,4,0.1,8,0.1,12c0,0.7,0,1.4,0,2.1c1,0.2,1.8,0.3,2.5,0.5c0,0.2,0,0.3-0.1,0.5c-2.8,0-5.7,0-8.5,0
				c0-0.1-0.1-0.3-0.1-0.4c0.7-0.2,1.5-0.3,2.5-0.5c0-2,0-4.1,0-6.2c0-2.7,0-5.4-0.2-8.1c-0.2-2.3-1.8-3.2-4-2.4
				c-2.1,0.8-3.7,2.5-4,4.6C192.1,32.9,192,37,191.6,41.1z"/>
			<path id="XMLID_368_" class="st0" d="M258.2,39.1c-0.3,2.2-1.4,3.6-3,3.9c-2,0.4-2.8-0.1-4.2-2.7c-1.9,1.9-4.2,2.9-7,2.7
				c-2.4-0.1-4.1-1.2-4.7-3c-0.7-2.1,0.1-4.6,1.9-6c2.4-1.8,5.1-2.4,8-2.5c0.6,0,1.2-0.1,1.9-0.1c0-1.8,0.1-3.5,0-5.1
				c-0.2-1.6-1.4-2.4-2.9-2.4c-1.1,0-2.2,0.1-3.2,0.3c-1.9,0.4-1.9,0.8-0.9,2.4c0.3,0.6,0.4,1.7,0,2.3c-0.3,0.5-1.4,0.8-2,0.7
				c-0.5-0.1-1.3-1-1.2-1.4c0.2-1.1,0.5-2.4,1.2-3.2c2.3-2.4,8.5-2.9,11.2-0.9c0.8,0.6,1.4,2,1.4,3.1c0.2,3.9,0,7.8,0.1,11.8
				c0,0.8,0.3,2,0.8,2.3c1.2,0.6,1.6-0.7,2-1.5C257.6,39.4,257.8,39.4,258.2,39.1z M251.1,32c-2.4,0.6-4.5,0.8-6.4,1.6
				c-2.1,0.8-2.8,3.1-2.1,5.2c0.6,1.8,2.2,2.7,4.3,2.5c2.4-0.3,4-1.7,4.1-3.9C251.2,35.8,251.1,34.2,251.1,32z"/>
			<path id="XMLID_367_" class="st0" d="M143.3,9.1c2.3,0,4.6,0,7.2,0c0,5.1,0,10.4,0,15.8c0,5.4,0,10.7,0,16.3
				c1.3,0.1,2.5,0.2,3.7,0.3c0,0.2,0,0.4-0.1,0.5c-3.6,0-7.2,0-10.8,0c0-0.2,0-0.4,0-0.5c1.1-0.1,2.3-0.2,3.6-0.3c0-0.7,0-1.3,0-2
				c0-9,0-18,0-27c0-1.7-0.5-2.4-2.2-2.2c-0.5,0.1-1-0.1-1.5-0.2C143.3,9.6,143.3,9.4,143.3,9.1z"/>
			<path id="XMLID_364_" class="st0" d="M88.3,31.2c-2.3,0-4.6,0-6.8,0c-1.8,0-3.6,0-5.4,0c-0.9,0-1.4,0.3-1.3,1.3
				c0.1,1.7,0.1,3.4,0.4,5.1c0.8,4,4.5,5.9,8.1,3.9c1.5-0.9,2.6-2.5,3.8-3.9c0.3-0.3,0.5-0.7,0.9-0.9c-0.1,2-0.9,3.5-2.5,4.7
				c-5.3,3.9-13.2,1-14.8-5.4c-1.5-6,2.3-12.1,8.1-12.9C83.9,22.2,88.1,25.7,88.3,31.2z M75.1,30c2.7,0,5.5,0,8.2,0
				c0.3,0,0.7-0.5,0.8-0.8c0.2-2.6-0.4-5.3-4.2-5.4C76.7,23.7,74.6,26.4,75.1,30z"/>
			<path id="XMLID_361_" class="st0" d="M170.8,36.4c0.1,3.6-3,6.4-7,6.6c-4,0.2-7.1-1.3-9.2-4.7c-2.2-3.7-1.6-7.5,0.6-11
				c2.8-4.6,8.5-5.8,12.7-2.8c2.2,1.6,3.4,3.7,3.4,6.7c-2.2,0-4.3,0-6.5,0c-1.9,0-3.9-0.1-5.8,0c-0.5,0-1.2,0.7-1.2,1
				c0,1.9,0.1,3.9,0.5,5.8c0.4,2.2,1.8,3.7,4.1,4c3,0.4,5.3-0.6,7-3.2C169.9,38.1,170.4,37.2,170.8,36.4z M162.4,30
				c1.1,0,2.3,0,3.4,0c0.9,0,1.2-0.3,1.3-1.3c0.1-2.7-1.1-4.6-3.4-5c-2.6-0.4-5,1.2-5.6,3.7c-0.5,2.3-0.4,2.5,1.9,2.5
				C160.9,30,161.7,30,162.4,30z"/>
			<path id="XMLID_360_" class="st0" d="M181.1,42.5c-0.1-0.8-0.2-1.5-0.3-2.3c-0.7-8.2-1.5-16.3-2.1-24.5c-0.1-1.8-0.1-3.6,0.4-5.3
				c0.2-0.8,1.6-1.9,2.4-1.9c0.8,0,2.2,1.1,2.4,1.9c0.4,1.9,0.4,3.9,0.3,5.9c-0.6,8.2-1.4,16.5-2.1,24.7c0,0.5-0.2,1-0.3,1.6
				C181.5,42.5,181.3,42.5,181.1,42.5z"/>
			<path id="XMLID_359_" class="st0" d="M66.9,24c-1.9,0.4-2.8,1.8-3.3,3.3c-0.6,1.8-0.9,3.7-1,5.6c-0.2,2.5,0,5.1,0,7.6
				c0,0.2,0.1,0.3,0.2,0.6c1.1,0.1,2.3,0.2,3.4,0.3c0,0.2,0,0.3,0,0.5c-3.5,0-7,0-10.5,0c0-0.2,0-0.3,0-0.5c1-0.1,1.9-0.2,3.1-0.3
				c0-5.5,0-11.1,0-16.9c-1-0.1-2-0.2-3-0.3c0-0.2,0-0.4,0-0.7c2.2-0.2,4.3-0.3,6.7-0.5c0,1.1,0,2.3,0,3.4c0.1,0.1,0.3,0.1,0.4,0.2
				c0.5-0.6,1-1.3,1.5-1.8c1.5-1.6,3.5-2.2,5-1.6c1.3,0.5,2,1.5,1.5,2.7c-0.3,0.7-1.5,1.3-2.2,1.3c-1.3-0.1-1.7-1.1-1.5-2.4
				C67.1,24.5,67,24.3,66.9,24z"/>
			<path id="XMLID_358_" class="st0" d="M55.3,36.5c-0.7,6.1-6.8,7.6-11.2,5.8c-5.3-2.2-7.3-8.5-4.8-14.1c2.1-4.6,8.4-6.7,13.2-4.3
				c2,1,3.1,2.7,2.6,4.4c-0.2,0.8-0.9,1.7-1.6,1.9c-0.6,0.2-1.9-0.3-2.1-0.8c-0.3-0.7-0.3-1.9,0.1-2.6c1-1.7,1-2.1-0.9-2.7
				c-3.9-1.3-7,0.5-7.9,4.5c-0.7,3.2-0.6,6.4,0.3,9.5c1.1,4,6.1,5.4,9.1,2.5c0.9-0.9,1.5-2,2.3-3C54.7,37.2,55,36.8,55.3,36.5z"/>
			<path id="XMLID_357_" class="st0" d="M115.3,41.2c0-2.4,0-4.8,0-7.2c0-2.5-0.1-5.1,0-7.6c0.1-1.6-0.4-2.4-2.1-2.1
				c-0.3,0-0.7-0.1-1-0.2c0-0.2,0-0.4-0.1-0.6c1.1-0.1,2.1-0.1,3.2-0.2c1.1-0.1,2.3-0.2,3.6-0.3c0,6.1,0,12.1,0,18.3
				c1,0.1,1.9,0.2,2.7,0.3c0,0.3,0,0.5,0,0.8c-3.1,0-6.3,0.1-9.4-0.1c0-0.2,0-0.4-0.1-0.6C113.1,41.5,114,41.3,115.3,41.2z"/>
			<path id="XMLID_356_" class="st0" d="M235.7,41.2c1.1,0.2,2,0.3,2.8,0.4c0,0.2,0,0.3,0,0.5c-3.2,0-6.3,0-9.5,0c0-0.2,0-0.3,0-0.5
				c1-0.1,1.9-0.2,3-0.3c0-5.6,0-11.2,0-16.9c-1.1-0.1-2-0.2-2.9-0.3c0-0.2,0-0.4-0.1-0.6c2.2-0.2,4.4-0.3,6.8-0.5
				C235.7,29,235.7,35,235.7,41.2z"/>
			<path id="XMLID_355_" class="st1" d="M185.9,51.1c0,2.5-1.8,4.4-4.5,4.4c-2.5,0.1-4.5-1.9-4.5-4.4c0-2.1,2.1-4.2,4.4-4.2
				C183.7,46.9,185.9,48.9,185.9,51.1z"/>
		</g>
	</g>
</g>
</svg>
